<?xml version="1.0" standalone="no"?>
<!DOCTYPE svg PUBLIC "-//W3C//DTD SVG 20010904//EN"
 "http://www.w3.org/TR/2001/REC-SVG-20010904/DTD/svg10.dtd">
<svg version="1.0" xmlns="http://www.w3.org/2000/svg"
 width="512.000000pt" height="512.000000pt" viewBox="0 0 512.000000 512.000000"
 preserveAspectRatio="xMidYMid meet">
<metadata>
Created by potrace 1.11, written by Peter Selinger 2001-2013
</metadata>
<g transform="translate(0.000000,512.000000) scale(0.100000,-0.100000)"
fill="#000000" stroke="none">
<path d="M0 5059 l0 -60 27 14 c67 35 132 56 189 62 52 5 71 2 116 -18 29 -13
70 -27 91 -31 20 -4 37 -11 37 -15 0 -5 13 -14 29 -21 30 -12 71 -53 71 -70 0
-6 5 -10 10 -10 6 0 10 -7 10 -15 0 -8 5 -15 10 -15 6 0 10 -10 10 -22 0 -31
11 -44 36 -45 12 -1 39 -10 60 -20 34 -15 40 -24 44 -57 3 -25 13 -44 28 -54
20 -13 22 -13 22 1 0 9 -7 22 -15 31 -18 18 -20 60 -2 53 6 -2 11 -14 10 -26
-2 -13 3 -21 12 -21 10 0 15 -10 15 -29 0 -34 18 -51 31 -30 5 8 9 10 10 4 0
-5 2 -19 4 -30 2 -11 -3 -28 -12 -37 -17 -19 -53 -24 -53 -8 0 6 9 10 20 10
20 0 28 24 11 34 -13 9 -69 -13 -75 -30 -3 -8 -12 -14 -19 -14 -11 0 -13 -7
-7 -27 15 -57 23 -73 36 -73 15 0 8 -30 -10 -42 -8 -6 -7 -11 2 -16 13 -9 13
-47 -1 -69 -5 -8 -3 -13 3 -13 8 0 9 -10 5 -30 -3 -16 -6 -54 -6 -84 0 -38 -5
-56 -15 -60 -8 -3 -14 -16 -14 -29 0 -13 -11 -34 -25 -47 -14 -13 -23 -25 -21
-28 3 -2 -11 -32 -30 -67 -31 -57 -35 -71 -39 -166 -2 -57 -6 -120 -9 -139
-18 -145 -15 -193 13 -176 7 4 10 -5 10 -26 -1 -18 0 -37 1 -43 6 -23 -13 -95
-26 -95 -7 0 -16 -9 -19 -20 -4 -11 -11 -18 -16 -15 -8 6 -13 -9 -10 -28 2
-13 -43 -47 -56 -42 -7 2 -13 -1 -13 -8 0 -7 -9 -18 -20 -25 -12 -7 -18 -17
-15 -22 3 -6 -2 -10 -12 -10 -9 0 -27 -12 -39 -27 -18 -23 -24 -25 -37 -15
-13 11 -17 10 -26 -6 -9 -17 -18 -19 -76 -14 -43 3 -65 1 -65 -6 0 -6 -24 -10
-62 -10 -35 1 -78 0 -95 0 l-33 -2 0 -179 0 -179 25 -16 c14 -9 25 -23 25 -31
0 -9 9 -23 20 -32 11 -10 20 -25 20 -33 0 -9 5 -21 12 -28 7 -7 8 -12 2 -12
-11 0 -11 -40 0 -59 13 -20 17 -91 5 -91 -5 0 -21 7 -34 16 -24 16 -25 16 -25
-10 0 -14 -5 -26 -11 -26 -6 0 -17 -7 -25 -15 -9 -9 -11 -15 -4 -15 6 0 8 -4
5 -10 -3 -5 -1 -19 5 -30 9 -16 8 -25 -1 -36 -10 -12 -9 -13 6 -7 15 5 17 3
12 -11 -4 -10 -7 -24 -7 -32 0 -23 -18 -16 -23 9 -2 12 -5 -49 -6 -135 0 -93
3 -158 8 -158 6 0 13 -20 16 -44 5 -33 3 -51 -9 -68 -18 -26 -23 -154 -6 -143
6 4 33 -1 60 -10 36 -12 55 -25 65 -46 9 -16 13 -29 10 -29 -3 0 1 -13 10 -29
11 -23 12 -36 5 -56 -6 -15 -7 -31 -4 -37 10 -16 -47 0 -71 20 -25 21 -62 42
-73 42 -5 0 -9 -65 -9 -145 0 -98 4 -145 11 -145 6 0 20 -3 31 -6 12 -3 34 4
55 18 40 27 93 34 107 16 8 -11 39 -80 64 -143 15 -40 31 -154 32 -239 0 -47
5 -86 10 -86 4 0 5 -5 2 -10 -8 -13 -17 -68 -16 -95 2 -33 -21 -145 -29 -145
-4 0 -11 -17 -15 -38 -4 -20 -13 -48 -21 -62 -27 -48 -54 -122 -54 -148 0 -15
-7 -36 -15 -46 -8 -11 -15 -27 -15 -35 0 -9 -7 -29 -15 -45 -9 -17 -16 -45
-17 -63 -1 -18 -4 -33 -7 -33 -10 0 -31 -53 -31 -79 0 -13 -7 -33 -17 -43 -15
-17 -12 -18 87 -18 94 0 104 2 132 25 28 23 31 24 59 10 16 -9 29 -20 29 -25
0 -6 273 -10 760 -10 787 0 786 0 748 38 -23 23 1 24 36 2 l36 -22 0 27 c0 20
-4 26 -15 21 -9 -3 -15 0 -15 8 0 9 7 12 20 9 27 -7 26 19 -1 57 -15 20 -20
36 -15 54 4 18 2 26 -7 26 -9 0 -14 13 -15 35 -1 20 -5 41 -9 48 -9 15 -11 25
-19 110 -6 62 -10 70 -33 79 -21 9 -23 12 -9 15 10 3 18 11 18 19 0 8 6 14 13
14 20 0 89 -26 96 -36 3 -6 26 -16 51 -23 67 -20 131 -52 137 -67 3 -8 10 -14
17 -14 6 0 27 -14 45 -31 18 -16 39 -28 47 -25 9 3 11 0 7 -11 -5 -13 -2 -15
15 -11 12 4 22 2 22 -3 0 -5 9 -9 21 -9 14 0 19 5 16 14 -7 18 49 39 104 38
21 -1 41 4 45 9 3 6 36 9 72 8 38 -2 77 2 89 9 12 7 34 12 49 12 14 0 41 9 58
19 17 11 54 25 81 31 27 6 59 21 72 34 13 13 36 27 50 31 15 3 40 17 57 30 17
14 50 39 73 57 23 18 42 39 42 46 1 7 9 15 19 19 42 15 116 80 152 133 21 32
46 60 54 63 9 4 25 27 38 53 12 26 34 54 50 63 17 10 28 24 28 39 0 12 4 22 8
22 11 0 52 34 95 77 18 18 39 31 47 30 23 -4 41 -17 35 -27 -8 -12 20 -112 29
-103 4 4 4 -1 0 -10 -4 -10 -2 -28 3 -40 37 -79 48 -265 20 -328 -22 -49 -47
-142 -47 -177 0 -17 -4 -34 -10 -37 -6 -3 -10 -20 -10 -36 0 -28 -21 -72 -46
-94 -28 -26 -79 -101 -115 -172 -23 -43 -45 -82 -50 -87 -34 -36 -31 -36 841
-36 l850 0 0 363 0 363 -57 21 c-32 11 -98 35 -148 53 -49 18 -97 39 -106 47
-9 8 -30 16 -46 18 -16 2 -54 15 -84 29 -30 13 -72 27 -94 30 -65 8 -152 42
-293 113 -116 59 -139 74 -175 121 -107 136 -142 175 -261 295 -95 96 -126
133 -121 145 17 41 46 364 35 383 -3 5 20 36 52 70 37 39 58 71 58 86 0 12 4
23 10 23 5 0 9 3 7 8 -1 4 3 9 8 11 6 2 28 -32 51 -75 22 -43 55 -106 74 -139
19 -33 48 -87 65 -120 63 -118 87 -161 104 -184 l18 -23 27 25 c20 19 26 31
21 47 -4 11 -2 26 3 33 5 7 15 36 23 65 7 28 16 52 21 52 4 0 8 12 8 26 0 14
6 32 14 40 9 9 14 33 14 63 -1 32 5 59 16 76 10 15 16 38 13 52 -3 18 2 28 19
40 13 8 22 19 19 23 -3 4 6 15 19 24 22 14 24 22 22 68 -2 34 1 59 10 69 8 8
15 29 16 45 1 16 5 31 10 34 4 3 9 38 12 77 4 50 13 85 31 117 14 24 25 51 25
59 0 22 53 66 88 73 18 4 35 10 38 15 6 10 64 0 82 -14 21 -16 85 45 78 75 -2
10 0 21 5 24 6 3 7 14 4 24 -8 26 19 32 65 14 44 -18 51 -31 19 -36 -20 -3
-20 -3 -1 -23 18 -20 90 -154 110 -205 6 -14 16 -51 23 -82 6 -32 20 -65 31
-74 17 -17 18 21 18 1319 l0 1337 -2560 0 -2560 0 0 -61z m740 30 c0 -5 -4 -9
-10 -9 -5 0 -10 7 -10 16 0 8 5 12 10 9 6 -3 10 -10 10 -16z m-7 -59 c3 -11 1
-20 -4 -20 -5 0 -9 9 -9 20 0 11 2 20 4 20 2 0 6 -9 9 -20z m1077 -71 c0 -12
-47 -12 -55 0 -6 11 23 20 43 13 6 -2 12 -8 12 -13z m810 -32 c0 -7 17 -21 38
-32 46 -24 152 -129 152 -150 0 -9 -4 -13 -10 -10 -5 3 -10 13 -10 21 0 8 -6
14 -13 14 -7 0 -21 14 -30 30 -10 17 -25 30 -33 30 -8 0 -25 10 -38 23 -13 12
-32 27 -42 33 -10 6 -21 23 -25 37 -4 16 -3 25 2 21 5 -3 9 -11 9 -17z m-1930
-7 c0 -11 -4 -20 -10 -20 -5 0 -10 9 -10 20 0 11 5 20 10 20 6 0 10 -9 10 -20z
m2364 -52 c5 -30 4 -38 -8 -38 -23 0 -29 18 -15 50 8 16 14 28 15 27 1 -1 4
-19 8 -39z m-2296 10 c17 -17 15 -40 -4 -36 -9 2 -23 13 -32 26 -13 20 -13 22
5 22 10 0 24 -5 31 -12z m42 -53 c0 -8 -4 -15 -10 -15 -5 0 -10 7 -10 15 0 8
5 15 10 15 6 0 10 -7 10 -15z m-50 -18 c10 -4 8 -6 -7 -6 -16 -1 -23 5 -23 17
0 10 3 13 8 6 4 -6 14 -14 22 -17z m1005 -15 c-3 -3 -11 0 -18 7 -9 10 -8 11
6 5 10 -3 15 -9 12 -12z m1095 -107 c6 -19 10 -45 8 -57 -2 -17 -8 -10 -21 29
-20 60 -20 63 -8 63 5 0 15 -16 21 -35z m-790 -47 c0 -6 -7 -5 -15 2 -8 7 -15
17 -15 22 0 6 7 5 15 -2 8 -7 15 -17 15 -22z m531 0 c16 -18 29 -39 29 -48 -1
-15 -70 57 -70 73 0 14 11 7 41 -25z m-1831 -67 c0 -5 -7 -11 -15 -15 -15 -5
-20 5 -8 17 9 10 23 9 23 -2z m1120 -168 c0 -16 -6 -16 -30 -3 -22 12 -62 78
-54 91 7 11 84 -70 84 -88z m-95 -53 c1 -20 5 -42 9 -48 3 -6 2 -13 -4 -17
-12 -8 -33 43 -25 63 3 8 -3 21 -15 29 -16 11 -18 17 -8 33 12 18 12 18 26 -2
8 -11 16 -37 17 -58z m393 68 c7 -7 12 -16 12 -20 0 -15 -15 -8 -28 12 -13 22
-3 27 16 8z m37 -48 c3 -5 1 -10 -4 -10 -6 0 -11 5 -11 10 0 6 2 10 4 10 3 0
8 -4 11 -10z m-530 -89 c-10 -16 -25 -3 -25 22 0 20 1 20 16 5 9 -9 13 -21 9
-27z m250 3 c9 -14 14 -28 11 -32 -7 -6 -56 37 -56 50 0 18 29 6 45 -18z m270
-34 c7 0 15 -8 17 -18 3 -10 21 -26 41 -35 20 -10 39 -22 42 -28 12 -19 35 11
29 37 -7 28 11 54 37 54 16 0 19 -8 19 -55 0 -44 3 -53 15 -49 27 11 18 -7
-29 -58 -19 -21 -19 -21 0 -14 10 4 43 17 73 29 33 13 56 28 59 40 5 18 6 17
26 -5 28 -31 67 -35 91 -8 18 20 41 28 30 10 -3 -5 1 -10 9 -10 8 0 22 -10 30
-21 14 -20 18 -21 47 -9 28 12 33 12 45 -5 11 -15 17 -16 26 -7 18 18 49 15
46 -4 -2 -10 3 -19 10 -21 6 -3 12 1 12 9 0 10 2 10 9 -1 5 -8 23 -14 40 -14
33 0 38 -6 20 -24 -7 -7 2 -15 31 -27 22 -9 43 -23 46 -31 4 -8 11 -12 16 -9
6 4 8 -2 3 -15 -7 -23 21 -70 64 -107 21 -18 22 -23 11 -44 -10 -19 -10 -25 2
-34 22 -16 16 -113 -8 -130 -16 -12 -14 -15 20 -31 40 -19 47 -52 9 -47 -11 2
-23 -4 -26 -12 -4 -10 -1 -13 7 -10 13 5 28 -18 30 -46 1 -8 11 -16 24 -18 12
-2 22 -7 22 -12 0 -5 6 -7 14 -4 16 6 33 -15 20 -25 -15 -10 -14 -60 1 -54 16
6 55 -31 55 -52 0 -8 9 -20 20 -27 21 -14 27 -52 9 -63 -6 -5 -4 -11 6 -19 10
-7 17 -29 19 -60 1 -26 7 -51 13 -54 5 -4 12 -15 16 -24 3 -10 13 -18 22 -18
20 0 19 -20 -2 -35 -15 -11 -15 -14 5 -31 13 -10 22 -30 22 -46 0 -15 7 -31
16 -36 14 -8 14 -13 4 -33 -9 -17 -10 -24 -2 -27 16 -5 39 -57 52 -117 9 -42
9 -51 -4 -61 -21 -15 -20 -34 2 -64 24 -35 54 -134 41 -138 -6 -3 -6 -8 0 -16
6 -7 12 -27 14 -44 2 -18 7 -35 10 -39 4 -3 7 -23 7 -43 0 -20 5 -41 12 -48 9
-9 7 -21 -6 -51 -18 -38 -18 -39 3 -60 23 -23 26 -37 11 -46 -16 -10 -12 -28
5 -21 23 9 19 -31 -5 -44 -20 -11 -29 -60 -10 -60 6 0 10 -20 10 -45 0 -32 -6
-50 -21 -64 -13 -12 -20 -27 -17 -39 4 -14 -2 -23 -20 -32 -21 -9 -23 -13 -11
-21 10 -6 11 -11 3 -16 -6 -5 -14 -18 -18 -30 -4 -12 -15 -25 -25 -28 -13 -4
-17 -12 -14 -25 3 -11 -3 -32 -13 -47 -11 -16 -21 -37 -24 -47 -3 -11 -12 -21
-20 -24 -13 -3 -13 -2 0 7 9 6 10 11 3 11 -22 0 -43 -12 -43 -25 0 -7 -10 -15
-21 -18 -17 -5 -20 -11 -16 -28 8 -30 -62 -98 -76 -74 -4 9 -12 13 -17 10 -5
-3 -14 4 -20 15 -6 11 -21 20 -34 20 -36 0 -59 33 -54 79 3 33 1 38 -13 31
-13 -7 -15 -24 -12 -92 2 -46 3 -90 2 -98 0 -8 0 -41 1 -73 1 -67 -10 -87 -51
-87 -28 0 -29 -2 -26 -34 3 -28 0 -36 -19 -45 -17 -7 -24 -19 -24 -37 0 -27
-25 -64 -43 -64 -5 0 -22 -11 -39 -25 -16 -14 -36 -25 -44 -25 -16 0 -17 -5
-8 -49 4 -19 13 -31 22 -31 12 0 13 -3 4 -12 -17 -17 -15 -42 8 -70 11 -14 21
-41 22 -59 3 -33 2 -34 -30 -31 l-32 2 6 -40 c4 -27 3 -40 -5 -40 -6 0 -11
-11 -11 -25 0 -19 -5 -25 -22 -25 -26 0 -89 -35 -101 -56 -5 -9 -21 -11 -52
-7 -55 6 -95 -3 -95 -21 0 -32 -81 -36 -101 -5 -10 14 -28 21 -63 24 -49 4
-66 16 -66 47 0 9 -12 25 -26 35 -15 11 -29 34 -33 53 -7 34 -31 54 -31 26 0
-9 -5 -16 -11 -16 -6 0 -8 9 -4 20 4 11 2 20 -4 20 -12 0 -9 62 4 93 9 21 -1
51 -14 42 -6 -3 -13 1 -18 9 -6 12 -17 13 -46 6 -31 -7 -37 -6 -33 6 3 8 1 14
-4 14 -13 0 -230 223 -230 235 0 4 -7 14 -16 22 -12 13 -18 13 -24 4 -5 -9 -7
-3 -7 14 0 14 -9 35 -19 45 -11 10 -30 30 -43 44 -30 34 -45 33 -38 -1 4 -20
-1 -35 -15 -50 -17 -19 -19 -25 -8 -38 7 -8 10 -18 7 -22 -4 -3 -15 4 -25 17
-15 19 -22 21 -40 11 -18 -9 -23 -8 -36 11 -9 12 -16 28 -16 34 0 7 -8 10 -20
7 -15 -4 -19 -2 -14 10 4 11 -4 17 -35 22 -27 4 -45 15 -57 32 -9 15 -29 38
-44 53 -15 15 -29 33 -32 41 -4 11 -8 12 -20 2 -12 -11 -18 -9 -33 7 -10 11
-15 20 -11 20 4 0 -9 16 -28 35 -28 27 -35 40 -31 58 4 15 -4 43 -24 82 -17
32 -35 83 -41 114 -5 31 -15 70 -20 87 -6 17 -12 54 -15 83 -2 29 -8 58 -13
64 -5 7 -10 19 -10 27 -4 71 -27 220 -35 220 -5 0 -6 7 -3 16 3 9 3 21 -1 27
-11 18 -13 66 -2 72 5 4 9 17 9 31 0 16 8 28 24 35 15 7 23 19 23 37 1 56 18
97 41 100 24 4 62 46 62 71 1 22 31 58 55 64 16 4 15 5 -5 6 -18 1 -26 7 -27
21 -2 26 36 53 54 38 18 -15 17 -39 -2 -32 -8 4 -15 1 -15 -5 0 -6 11 -11 24
-11 19 0 22 4 18 25 -5 26 12 35 21 11 4 -9 14 -12 26 -9 21 5 21 5 1 33 -11
15 -17 29 -14 32 2 3 -2 11 -10 17 -11 10 -21 9 -45 -4 -19 -9 -42 -13 -58 -9
-20 4 -24 3 -14 -4 23 -17 -23 -25 -67 -11 -39 11 -40 12 -57 88 -10 42 -22
81 -27 87 -4 6 -9 36 -9 65 -1 30 -7 74 -14 99 -7 25 -21 79 -30 122 -9 42
-24 89 -32 105 -17 32 -24 113 -12 128 4 6 9 28 11 49 1 20 6 40 10 42 4 3 8
18 8 33 0 16 7 34 14 41 8 6 20 28 27 48 20 65 41 102 56 102 10 0 14 7 11 18
-4 12 5 27 23 41 16 13 29 31 29 41 0 21 54 70 77 70 10 0 14 6 10 19 -3 14
-1 18 9 14 9 -3 14 2 14 16 0 12 -6 21 -14 21 -20 0 -31 19 -18 32 6 6 21 4
43 -8 19 -9 28 -19 22 -21 -7 -3 -13 -11 -13 -19 0 -9 5 -13 13 -9 6 4 5 0 -4
-7 -12 -9 -14 -20 -8 -36 10 -27 19 -29 12 -2 -7 27 18 35 70 22 23 -6 43 -7
45 -2 2 4 15 2 29 -5 15 -8 50 -17 79 -21 46 -5 57 -3 86 17 70 49 71 51 38
83 -31 28 -31 51 -2 42 10 -3 35 -8 56 -12 52 -8 74 -17 115 -48 19 -14 41
-26 48 -26 7 0 13 -4 13 -10 0 -5 5 -10 11 -10 8 0 10 18 6 60 -4 33 -5 60 -3
60 2 0 20 -13 41 -30 45 -36 72 -38 85 -7 5 12 9 18 9 12 1 -5 16 -10 34 -10
28 1 32 4 29 25 -1 13 -9 31 -17 40 -23 26 -18 33 20 27 20 -3 44 -16 55 -29
15 -18 21 -20 31 -11 17 17 -28 103 -53 103 -19 0 -23 11 -11 24 4 4 9 2 11
-3 2 -6 10 -11 17 -11z m-682 -30 c3 -11 1 -20 -3 -20 -13 0 -40 42 -34 52 8
12 31 -8 37 -32z m-175 14 c27 -19 29 -34 3 -27 -27 7 -60 43 -40 43 8 0 25
-7 37 -16z m476 -50 c9 -20 15 -39 12 -41 -5 -5 -46 56 -46 70 0 19 18 3 34
-29z m166 -24 c0 -21 -15 -27 -25 -10 -7 12 2 30 16 30 5 0 9 -9 9 -20z m90
-36 c0 -8 -4 -12 -10 -9 -5 3 -10 10 -10 16 0 5 5 9 10 9 6 0 10 -7 10 -16z
m-925 -84 c3 -5 -1 -10 -10 -10 -9 0 -13 5 -10 10 3 6 8 10 10 10 2 0 7 -4 10
-10z m2630 -881 c32 -13 75 -55 75 -74 0 -6 5 -16 11 -22 6 -6 13 -44 14 -85
1 -40 8 -107 14 -148 6 -41 14 -93 17 -115 4 -22 1 -96 -6 -164 -7 -68 -13
-152 -15 -185 -1 -34 -8 -85 -14 -115 -6 -30 -9 -63 -5 -73 4 -13 1 -16 -10
-12 -10 4 -16 1 -16 -10 0 -19 -45 -50 -60 -41 -5 3 -10 19 -10 35 0 16 -5 32
-11 36 -7 4 -9 23 -5 53 5 39 3 48 -14 59 -11 7 -20 23 -20 37 0 14 -4 25 -9
25 -18 0 -30 58 -19 88 10 25 8 33 -15 64 -15 19 -27 48 -28 64 0 16 -6 45
-13 64 -9 24 -10 47 -4 75 10 43 1 204 -12 220 -14 17 32 203 55 220 19 15 66
17 100 4z m-3119 -28 c-15 -16 -15 -19 -1 -31 34 -28 122 -174 129 -215 3 -13
11 -37 20 -52 51 -94 74 -166 58 -185 -5 -7 -13 -38 -17 -70 -7 -52 -5 -60 29
-118 20 -33 36 -66 36 -71 0 -6 16 -44 35 -85 19 -40 35 -80 35 -87 0 -8 7
-20 15 -27 8 -7 15 -29 15 -49 0 -20 7 -49 15 -65 8 -15 15 -47 15 -70 1 -22
7 -75 14 -116 18 -103 13 -180 -13 -201 -11 -9 -18 -19 -15 -22 4 -3 -4 -25
-16 -49 -12 -24 -26 -51 -31 -60 -5 -10 -9 -26 -9 -36 0 -10 -5 -23 -12 -30
-7 -7 -12 -53 -14 -117 l-2 -106 33 -24 c17 -14 36 -25 40 -25 5 0 16 -7 25
-15 13 -11 24 -12 53 -4 21 5 46 7 57 4 12 -4 22 0 28 11 6 11 16 14 31 9 19
-6 20 -8 5 -22 -15 -15 -14 -18 8 -34 12 -10 29 -19 36 -19 6 0 12 -4 12 -10
0 -13 50 -59 85 -77 32 -17 80 -66 120 -124 l25 -36 -25 -89 c-43 -152 -48
-165 -76 -185 -15 -10 -30 -19 -33 -19 -4 0 -25 -12 -49 -27 -53 -34 -114 -69
-149 -85 -16 -7 -28 -16 -28 -20 0 -4 -12 -14 -27 -22 -16 -9 -74 -60 -131
-114 -57 -55 -115 -105 -129 -113 -23 -12 -27 -11 -44 9 l-18 23 -36 -35 c-35
-35 -36 -36 -59 -19 -13 10 -32 39 -44 65 -12 26 -25 48 -30 48 -12 0 -67 -87
-80 -129 -10 -28 -9 -37 7 -60 40 -56 -32 -88 -113 -50 -26 12 -50 28 -53 36
-7 17 16 131 27 138 5 3 6 23 4 46 -2 24 2 49 10 62 18 27 32 172 16 162 -5
-3 -10 -15 -10 -26 0 -10 -4 -27 -9 -37 -15 -30 -44 -110 -62 -170 -6 -18 -19
-48 -31 -67 -17 -29 -26 -35 -54 -35 -27 0 -36 5 -44 24 -9 26 3 90 23 114 5
7 10 31 9 54 -1 23 3 46 8 53 6 7 15 47 20 89 5 43 12 82 16 87 3 6 13 38 20
72 8 33 18 66 23 71 5 6 9 25 9 41 0 23 15 45 56 89 31 32 53 63 49 69 -3 5
-1 7 4 4 6 -4 22 10 37 31 14 21 44 55 66 77 45 44 46 47 24 70 -11 11 -13 19
-6 28 5 7 15 39 22 72 7 33 18 67 25 75 7 8 15 38 18 65 15 131 21 150 43 141
22 -8 29 22 10 43 -22 24 -20 48 4 56 23 7 26 28 6 44 -8 7 -15 40 -18 89 -3
51 -12 93 -27 123 -25 54 -177 209 -204 209 -26 0 -88 34 -120 65 -20 20 -27
23 -27 12 0 -9 5 -19 10 -22 15 -9 3 -96 -17 -117 -11 -12 -12 -18 -4 -18 7 0
10 -7 7 -18 -7 -21 -14 -87 -22 -217 -6 -77 -4 -96 14 -135 39 -87 38 -91 -13
-61 -21 13 -31 28 -37 57 -4 21 -15 72 -24 111 -9 41 -13 80 -9 90 11 24 15
75 7 88 -9 15 -11 86 -2 80 13 -8 20 21 8 33 -8 8 -7 13 5 18 11 4 15 14 11
32 -3 15 -1 53 4 85 5 32 5 60 1 63 -5 3 -8 15 -7 27 2 36 -23 140 -38 155 -8
7 -14 21 -14 31 0 10 -6 31 -14 47 -49 103 -66 144 -66 164 0 23 69 140 82
140 8 0 58 -74 58 -85 0 -6 25 -44 114 -175 36 -52 65 -79 54 -48 -6 14 0 28
66 151 39 73 44 92 22 84 -10 -4 -13 -1 -10 8 4 8 -3 15 -18 17 -19 2 -22 8
-20 31 2 15 -2 27 -9 27 -6 0 -9 7 -5 15 3 8 -2 18 -10 23 -12 7 -13 13 -3 38
7 16 11 41 10 56 -2 19 7 36 30 57 17 17 35 31 40 31 4 0 9 6 11 14 4 16 117
116 131 116 6 0 3 -8 -7 -19z m272 -597 c12 -4 22 -11 22 -17 0 -6 7 -18 16
-28 9 -10 18 -40 20 -66 2 -26 6 -67 10 -89 11 -68 -11 -60 -50 17 -20 40 -36
76 -36 81 0 6 -7 25 -16 44 -15 32 -14 64 3 64 4 0 18 -3 31 -6z m-721 -586
c-3 -8 -6 -5 -6 6 -1 11 2 17 5 13 3 -3 4 -12 1 -19z m812 -449 c-5 -10 -14
-19 -20 -19 -16 0 -22 29 -9 45 19 22 43 0 29 -26z m-714 1 c3 -11 10 -20 16
-20 5 0 19 -17 32 -37 30 -49 44 -147 46 -334 1 -79 3 -160 4 -179 2 -31 -1
-35 -20 -33 -13 2 -23 -3 -24 -10 0 -6 -5 -1 -10 12 -5 13 -6 46 -3 72 6 44 4
49 -12 49 -12 0 -15 3 -8 8 6 4 19 39 29 78 26 100 12 213 -39 316 -20 40 -36
79 -36 86 0 19 18 14 25 -8z m701 -67 c-7 -7 -26 7 -26 19 0 6 6 6 15 -2 9 -7
13 -15 11 -17z m-846 -14 c0 -5 -4 -9 -10 -9 -5 0 -10 7 -10 16 0 8 5 12 10 9
6 -3 10 -10 10 -16z m994 4 c9 -23 -11 -40 -67 -55 -53 -14 -67 -6 -67 39 0
22 1 23 106 31 12 1 25 -5 28 -15z m46 -107 c12 -14 20 -32 17 -40 -6 -16 -88
-32 -106 -21 -29 18 8 85 47 85 10 0 29 -11 42 -24z m995 -437 c-10 -15 -25
-10 -19 6 4 8 10 12 15 9 5 -3 7 -10 4 -15z m-1970 -743 c17 -12 16 -13 -10
-20 -32 -8 -40 -3 -32 19 8 19 18 19 42 1z m120 -5 c7 -12 -12 -24 -25 -16
-11 7 -4 25 10 25 5 0 11 -4 15 -9z m1545 -54 c9 -4 5 -6 -10 -4 -16 1 -26 9
-28 22 -2 18 -1 18 10 4 7 -9 20 -19 28 -22z"/>
<path d="M1790 3980 c0 -5 9 -10 20 -10 11 0 20 5 20 10 0 6 -9 10 -20 10 -11
0 -20 -4 -20 -10z"/>
<path d="M3046 3110 c-22 -11 -50 -20 -63 -20 -13 0 -23 -4 -23 -10 0 -5 -7
-10 -15 -10 -35 0 -11 -19 31 -26 26 -4 58 -17 76 -32 19 -16 44 -26 67 -27
20 -1 49 -7 64 -13 16 -7 35 -12 44 -12 9 0 31 -10 50 -21 25 -16 37 -19 46
-10 13 13 0 40 -43 89 -25 29 -165 113 -187 112 -4 -1 -26 -10 -47 -20z"/>
<path d="M2622 3018 c-6 -6 -8 -17 -5 -24 3 -8 1 -14 -5 -14 -5 0 -12 7 -16
15 -3 8 -15 15 -26 15 -12 0 -18 -4 -15 -11 4 -5 -1 -19 -10 -29 -16 -18 -16
-20 -1 -26 9 -3 16 -15 16 -25 0 -20 16 -26 22 -9 2 6 14 12 28 14 35 4 83 17
95 26 6 5 26 12 45 17 43 11 52 40 15 49 -18 4 -32 1 -46 -12 -17 -16 -21 -16
-32 -2 -16 20 -52 29 -65 16z"/>
<path d="M2515 2910 c4 -6 11 -8 16 -5 14 9 11 15 -7 15 -8 0 -12 -5 -9 -10z"/>
<path d="M2722 2869 c-46 -4 -89 -12 -95 -17 -7 -5 -26 -13 -44 -16 -17 -4
-37 -14 -44 -22 -6 -8 -19 -14 -28 -14 -32 0 -57 -49 -33 -64 13 -8 92 34 105
55 7 11 23 19 38 19 25 0 97 -41 111 -63 4 -6 10 -8 14 -4 4 4 13 2 21 -4 10
-9 13 -8 13 0 0 7 4 10 9 7 4 -3 16 3 26 14 9 10 23 16 31 13 14 -5 18 6 15
40 -3 25 40 22 62 -4 10 -11 25 -18 33 -15 8 3 14 1 14 -3 0 -5 19 -11 43 -13
43 -5 100 23 77 37 -6 4 -9 14 -8 23 2 10 -3 16 -10 14 -7 -1 -15 5 -18 13 -5
12 -28 15 -128 14 -66 -1 -158 -5 -204 -10z m39 -49 c25 -14 25 -50 0 -50 -24
0 -43 23 -35 44 7 19 9 19 35 6z"/>
<path d="M1577 2844 c-3 -3 -3 -12 -1 -19 9 -23 -48 -26 -78 -4 -32 22 -78 26
-78 5 0 -15 62 -66 79 -66 6 0 11 -4 11 -10 0 -5 10 -14 21 -21 26 -13 45 7
27 28 -8 10 -3 13 26 13 35 0 53 -20 19 -20 -16 -1 -16 -2 1 -15 23 -18 62
-20 72 -4 3 6 0 16 -7 21 -10 7 -9 8 6 3 41 -15 112 -18 120 -5 5 8 1 16 -9
22 -16 9 -16 11 1 23 17 13 16 14 -7 9 -20 -5 -22 -4 -10 6 12 9 0 10 -50 7
-50 -3 -72 0 -95 15 -33 20 -39 21 -48 12z"/>
<path d="M2480 2710 c0 -5 5 -10 10 -10 6 0 10 5 10 10 0 6 -4 10 -10 10 -5 0
-10 -4 -10 -10z"/>
<path d="M1764 2679 c-45 -3 -106 -14 -135 -23 -30 -10 -70 -22 -89 -28 -19
-6 -53 -19 -74 -29 -22 -11 -43 -19 -47 -19 -17 0 -78 -47 -88 -67 -8 -17 -6
-29 7 -53 15 -27 52 -42 52 -21 0 4 20 21 45 37 26 16 45 36 45 46 0 24 27 36
73 32 45 -4 57 -10 57 -30 0 -8 10 -14 25 -14 14 0 25 4 25 9 0 5 12 12 26 15
34 9 26 30 -12 31 -22 0 -30 5 -32 23 -3 18 1 21 19 19 13 -2 25 -9 27 -15 8
-25 24 -11 17 15 -5 22 -4 25 8 14 12 -9 18 -9 30 4 20 19 55 19 102 -1 20 -8
38 -14 40 -12 1 2 7 17 13 35 10 30 9 31 -21 35 -18 1 -69 0 -113 -3z"/>
<path d="M1955 2670 c-3 -6 2 -13 12 -17 10 -3 22 -8 26 -11 5 -2 4 5 -2 17
-13 23 -26 27 -36 11z"/>
<path d="M1890 2580 c0 -13 5 -20 13 -17 6 2 12 10 12 17 0 7 -6 15 -12 18 -8
2 -13 -5 -13 -18z"/>
<path d="M1721 2574 c0 -11 3 -14 6 -6 3 7 2 16 -1 19 -3 4 -6 -2 -5 -13z"/>
<path d="M2028 2519 c-1 -28 0 -53 4 -55 3 -2 8 21 10 51 1 30 0 55 -4 55 -3
0 -8 -23 -10 -51z"/>
<path d="M3511 2514 c0 -11 3 -14 6 -6 3 7 2 16 -1 19 -3 4 -6 -2 -5 -13z"/>
<path d="M2055 2439 c-4 -6 -5 -13 -2 -16 7 -7 27 6 27 18 0 12 -17 12 -25 -2z"/>
<path d="M2018 2340 c-6 -38 16 -52 37 -24 18 24 19 48 1 41 -7 -3 -18 -1 -24
5 -6 6 -11 -1 -14 -22z"/>
<path d="M1986 2292 c-3 -6 1 -15 8 -21 8 -7 17 -8 20 -3 3 6 -1 15 -8 21 -8
7 -17 8 -20 3z"/>
<path d="M1993 2231 c3 -13 2 -34 -3 -47 -8 -19 -6 -24 6 -24 19 0 28 25 18
48 -4 9 -8 20 -8 24 -1 3 -5 10 -10 15 -5 5 -7 -2 -3 -16z"/>
<path d="M1982 2134 c1 -9 9 -19 16 -22 9 -3 13 2 10 14 -1 9 -9 19 -16 22 -9
3 -13 -2 -10 -14z"/>
<path d="M2377 1973 c-12 -11 -8 -23 8 -23 8 0 15 7 15 15 0 16 -12 20 -23 8z"/>
<path d="M2910 1755 c-30 -7 -86 -18 -125 -25 -94 -17 -122 -29 -73 -29 20 -1
40 -6 43 -11 4 -6 26 -8 56 -4 45 6 49 5 49 -14 0 -12 -9 -23 -20 -27 -11 -3
-20 -12 -20 -19 0 -7 -11 -18 -24 -24 -30 -13 -41 -61 -18 -78 23 -17 35 -7
28 22 -5 18 -3 22 9 18 16 -6 55 21 55 38 0 8 39 53 107 124 18 19 28 34 23
34 -4 0 -14 2 -22 4 -7 3 -38 -1 -68 -9z"/>
<path d="M1973 1583 c-9 -7 -38 -13 -63 -13 -26 0 -50 -3 -54 -7 -12 -12 -40
-12 -54 -1 -10 9 -16 8 -22 -2 -11 -19 -11 -19 57 -65 32 -22 68 -49 80 -60
13 -11 40 -29 60 -40 21 -11 44 -28 51 -37 7 -10 21 -18 31 -18 10 0 30 -9 44
-20 25 -20 25 -20 30 0 3 12 -1 24 -11 30 -13 7 -13 9 -3 10 11 0 11 4 -2 18
-10 10 -17 24 -17 30 0 6 -12 14 -27 18 -49 11 -58 14 -80 32 -13 10 -23 31
-25 52 l-3 35 45 1 c25 0 51 -4 58 -10 10 -7 19 -4 32 14 11 14 15 29 11 33
-11 11 -42 12 -65 2 -13 -6 -17 -5 -13 2 9 15 -38 11 -60 -4z"/>
<path d="M2241 864 c0 -11 3 -14 6 -6 3 7 2 16 -1 19 -3 4 -6 -2 -5 -13z"/>
<path d="M525 2890 c-4 -6 -3 -16 3 -22 6 -6 12 -6 17 2 4 6 3 16 -3 22 -6 6
-12 6 -17 -2z"/>
<path d="M506 2269 c12 -13 20 -16 22 -9 3 7 -2 16 -9 21 -25 16 -32 9 -13
-12z"/>
<path d="M421 2213 c-1 -13 1 -23 3 -23 2 0 13 -3 23 -6 16 -5 16 -4 2 8 -9 7
-18 20 -22 28 -4 10 -6 8 -6 -7z"/>
<path d="M750 1210 c0 -5 5 -10 10 -10 6 0 10 5 10 10 0 6 -4 10 -10 10 -5 0
-10 -4 -10 -10z"/>
<path d="M636 1143 c-4 -9 -4 -18 -1 -21 3 -3 5 1 5 9 0 12 2 12 10 -1 5 -8
12 -11 16 -8 3 4 0 14 -9 22 -13 14 -16 14 -21 -1z"/>
<path d="M506 764 c-7 -18 -8 -70 -1 -63 2 3 11 22 20 42 13 31 13 37 1 37 -8
0 -17 -7 -20 -16z"/>
<path d="M640 359 c0 -5 5 -7 10 -4 6 3 10 8 10 11 0 2 -4 4 -10 4 -5 0 -10
-5 -10 -11z"/>
<path d="M857 353 c-4 -3 -7 -13 -7 -21 0 -12 3 -12 15 -2 8 7 15 16 15 21 0
11 -14 12 -23 2z"/>
<path d="M25 4942 c-17 -23 -20 -46 -23 -154 -2 -78 0 -128 6 -128 5 0 12 9
15 20 7 28 27 25 27 -4 0 -20 4 -23 21 -19 12 3 25 0 29 -7 6 -9 16 -10 41 -2
19 6 47 10 63 10 15 0 32 5 36 12 4 7 12 10 18 6 15 -9 26 13 27 49 0 25 4 30
25 32 14 1 43 6 65 12 22 6 57 11 78 11 36 0 67 17 67 38 0 15 -41 63 -50 57
-4 -2 -19 4 -32 15 -24 18 -57 29 -153 50 -37 8 -181 4 -197 -6 -4 -3 -12 5
-18 16 -14 26 -21 25 -45 -8z m213 -110 c2 -7 -3 -12 -12 -12 -9 0 -16 7 -16
16 0 17 22 14 28 -4z m-98 -7 c18 -21 5 -45 -24 -45 -33 0 -39 12 -20 38 18
26 27 27 44 7z"/>
<path d="M705 4750 c-3 -5 -1 -10 4 -10 6 0 11 5 11 10 0 6 -2 10 -4 10 -3 0
-8 -4 -11 -10z"/>
<path d="M660 4700 c0 -11 4 -20 9 -20 5 0 7 9 4 20 -3 11 -7 20 -9 20 -2 0
-4 -9 -4 -20z"/>
<path d="M268 4643 c7 -3 16 -2 19 1 4 3 -2 6 -13 5 -11 0 -14 -3 -6 -6z"/>
<path d="M210 4630 c0 -5 7 -10 15 -10 8 0 15 5 15 10 0 6 -7 10 -15 10 -8 0
-15 -4 -15 -10z"/>
<path d="M90 4626 c0 -2 7 -6 15 -10 8 -3 15 -1 15 4 0 6 -7 10 -15 10 -8 0
-15 -2 -15 -4z"/>
<path d="M0 4510 c0 -19 3 -21 12 -12 9 9 9 15 0 24 -9 9 -12 7 -12 -12z"/>
<path d="M0 4394 c0 -57 23 -86 47 -61 15 15 15 20 -3 56 -28 59 -44 60 -44 5z"/>
<path d="M0 4260 c0 -13 8 -24 20 -27 23 -6 25 -14 8 -32 -11 -10 -9 -12 7 -9
13 2 19 10 17 22 -2 11 4 20 18 23 38 10 19 38 -28 41 -37 3 -42 1 -42 -18z"/>
<path d="M60 3920 c0 -6 -13 -10 -30 -10 -26 0 -30 -3 -30 -29 0 -21 5 -28 17
-27 25 2 28 -31 4 -39 -17 -5 -21 -15 -21 -53 1 -37 3 -43 11 -29 5 9 18 17
29 17 10 0 21 6 23 13 4 7 8 3 12 -10 9 -28 26 -29 42 -4 11 17 38 33 170 99
43 21 43 47 1 60 -47 15 -228 24 -228 12z"/>
<path d="M2352 270 c0 -14 2 -19 5 -12 2 6 2 18 0 25 -3 6 -5 1 -5 -13z"/>
<path d="M2350 230 c0 -5 5 -10 11 -10 5 0 7 5 4 10 -3 6 -8 10 -11 10 -2 0
-4 -4 -4 -10z"/>
</g>
</svg>
